# xmcd
#
# Track frame offsets:
#	150
#	10838
#	21188
#	34598
#	50264
#	67868
#	82826
#	101265
#	113433
#	127607
#	140767
#	157563
#	175677
#	193523
#	212298
#	228090
#	243177
#	256429
#
# Disc length: 3545 seconds
#
# Revision: 4
# Processed by: cddbd v1.5.1PL0 Copyright (c) Steve Scherf et al.
# Submitted via: MusicManager 7.2.0.0 
#
DISCID=c10dd712
DTITLE=Various Artist - Greatest Hits of the 70's CD1
DYEAR=1467
DGENRE=
TTITLE0=Madness - One Step Beyond
TTITLE1=Blondie - Denis
TTITLE2=Generation X - Ready Steady Go
TTITLE3=The Stranglers - No More Heroes
TTITLE4=Members - The Sound of the Suburbs
TTITLE5=Sex Pistols - God Save the Queen
TTITLE6=P.I.L. - Death Disco
TTITLE7=Buzzcocks - Ever fallen in Love (with someone you shouldn't 've)
TTITLE8=The Selector - On My Radio
TTITLE9=The Specials feat. Rico - A Message to Rudy
TTITLE10=Peter Tosh - Don't Look Back (You've gotta walk)
TTITLE11=The Knack - My Sharona
TTITLE12=Atomic Rooster - Tomorrow Night
TTITLE13=E.L.O. - Showdown
TTITLE14=The Rumour - Frozen Years
TTITLE15=Eddie Howell - Man from Manhattan
TTITLE16=Jona Lewie - Big Shot Momentarily
TTITLE17=Mike Oldfield - Blue Peter
EXTD=
EXTT0=
EXTT1=
EXTT2=
EXTT3=
EXTT4=
EXTT5=
EXTT6=
EXTT7=
EXTT8=
EXTT9=
EXTT10=
EXTT11=
EXTT12=
EXTT13=
EXTT14=
EXTT15=
EXTT16=
EXTT17=
PLAYORDER=
